<svg width="50" height="46" viewBox="0 0 50 46" fill="none" xmlns="http://www.w3.org/2000/svg">
<path d="M0 29.4865C1.62399 27.6889 3.65655 25.9956 6.17835 24.6121C9.76556 22.6439 13.0324 22.0721 16.2587 21.5073C22.8854 20.3474 29.3408 19.2174 38.0486 6.07902C39.2953 4.19802 40.5738 2.51101 41.8669 1C46.8743 5.74942 50 12.4843 50 19.9536C50 34.3386 38.4066 46 24.1054 46C13.1494 46 3.78253 39.156 0 29.4865Z" fill="#850F56"/>
<path d="M34 10.5C34 15.1944 30.1944 19 25.5 19C20.8056 19 17 15.1944 17 10.5C17 5.80558 20.8056 2 25.5 2C30.1944 2 34 5.80558 34 10.5Z" fill="#713E72"/>
<path d="M44 4C44 6.20914 42.2091 8 40 8C37.7909 8 36 6.20914 36 4C36 1.79086 37.7909 0 40 0C42.2091 0 44 1.79086 44 4Z" fill="#713E72"/>
<path d="M48 12C48 16.9706 43.9706 21 39 21C34.0294 21 30 16.9706 30 12C30 7.02944 34.0294 3 39 3C43.9706 3 48 7.02944 48 12Z" fill="#713E72"/>
<path d="M33.3142 16.9785C34.6525 17.7397 34.665 19.6641 33.3367 20.4426L19.1403 28.762C17.812 29.5405 16.1391 28.589 16.1291 27.0495L16.0225 10.5953C16.0125 9.05576 17.6729 8.08272 19.0112 8.84386L33.3142 16.9785Z" fill="#FF5977"/>
</svg>
